<svg width="24" height="24" viewBox="0 0 24 24" fill="none" xmlns="http://www.w3.org/2000/svg">
    <rect width="24" height="24" />
    <path
        d="M18.7998 10.0923C18.4612 9.41538 17.7484 9 16.9286 9H11.3863C10.6556 9 10.0497 9.52308 10.0497 10.1538C10.0497 10.7846 10.6556 11.3077 11.3863 11.3077H15.6455L10.6022 15.8462C9.99626 16.4 9.83587 17.2 10.1745 17.9077C10.5131 18.5846 11.2259 19 12.0457 19H17.6236C18.3543 19 18.9602 18.4769 18.9602 17.8462C18.9602 17.2154 18.3543 16.6923 17.6236 16.6923H13.3644L18.3899 12.1846C18.9958 11.6308 19.174 10.8154 18.8176 10.1077L18.7998 10.0923Z"
        fill="#000" />
    <path
        d="M2.89947 11.9154C3.60865 12.1523 4.39057 11.8138 4.64515 11.1538L5.15431 9.83386H8.8457L9.35485 11.1538C9.55488 11.6785 10.0822 12 10.6459 12C10.7914 12 10.9551 11.9831 11.1005 11.9323C11.8097 11.6954 12.1734 10.9677 11.9188 10.3077L8.80933 2.20154C8.5002 1.47385 7.79101 1 6.99091 1C6.1908 1 5.48162 1.47385 5.17249 2.23539L2.08118 10.3077C1.8266 10.9677 2.19028 11.6954 2.89947 11.9323V11.9154ZM7.86375 7.29539H6.11807L6.99091 5.0277L7.86375 7.29539Z"
        fill="#000" />
</svg>